# xmcd
#
# Track frame offsets:
#	150
#	15305
#	35644
#	57093
#	74836
#	85933
#	109992
#	125465
#	149259
#	168469
#	183435
#	204940
#	228292
#	249562
#	256762
#
# Disc length: 3642 seconds
#
# Revision: 0
# Processed by: cddbd v1.5.1PL0 Copyright (c) Steve Scherf et al.
# Submitted via: dBpowerAMP V4.0
#
DISCID=ce0e380f
DTITLE=Michael Martin Murphey - Storm Over The Rangeland
DYEAR=2005
DGENRE=Country
TTITLE0=Free Rein
TTITLE1=Close to The Land
TTITLE2=Out of Line
TTITLE3=Winter Ground (Long And Lonesome Ride to Dalhart)
TTITLE4=Running Gun
TTITLE5=Dry Lightning
TTITLE6=The Master's Call
TTITLE7=Ride Out The Storm
TTITLE8=Blue Bonnets
TTITLE9=Honor Bound
TTITLE10=Johnnie Armstrong
TTITLE11=The Drover Road
TTITLE12=Campfire on The Road
TTITLE13=Under God
TTITLE14=My Country Under God
EXTD=
EXTT0=
EXTT1=
EXTT2=
EXTT3=
EXTT4=
EXTT5=
EXTT6=
EXTT7=
EXTT8=
EXTT9=
EXTT10=
EXTT11=
EXTT12=
EXTT13=
EXTT14=
PLAYORDER=
